<svg xmlns="http://www.w3.org/2000/svg" version="1.1" xmlns:xlink="http://www.w3.org/1999/xlink" xmlns:svgjs="http://svgjs.com/svgjs" width="1440" height="560" preserveAspectRatio="none" viewBox="0 0 1440 560"><g mask="url(&quot;#SvgjsMask1000&quot;)" fill="none"><rect width="1440" height="560" x="0" y="0" fill="#0e2a47"></rect><path d="M0,467.739C87.473,473.915,172.067,428.79,239.681,372.951C302.983,320.672,330.16,241.033,364.698,166.552C399.447,91.616,449.097,18.74,442.1,-63.564C434.954,-147.617,371.015,-211.256,326.487,-282.902C272.971,-369.011,250.287,-492.972,154.528,-526.273C59.236,-559.412,-38.885,-485.59,-129.645,-441.529C-207.598,-403.686,-283.227,-359.6,-333.778,-289.22C-381.753,-222.427,-392.363,-139.491,-404.954,-58.224C-417.679,23.911,-442.558,110.741,-407.414,186.06C-372.346,261.216,-287.091,293.408,-218.873,340.573C-148.034,389.55,-85.908,461.673,0,467.739" fill="#0b2239"></path><path d="M1440 903.212C1511.618 901.579 1588.146 922.919 1649.903 886.616 1712.299 849.937 1751.647 780.427 1768.584 710.059 1784.133 645.457 1742.55 583.375 1738.8609999999999 517.03 1734.671 441.66200000000003 1790.816 355.648 1745.521 295.264 1700.859 235.723 1607.562 244.09500000000003 1533.144 242.78199999999998 1472.318 241.709 1417.727 268.476 1360.27 288.465 1305.899 307.38 1252.518 323.606 1205.47 356.779 1146.621 398.272 1058.844 432.65 1053.895 504.486 1048.848 577.753 1154.174 609.81 1183.3980000000001 677.186 1213.568 746.7429999999999 1166.961 846.2139999999999 1223.855 896.329 1279.066 944.961 1366.444 904.889 1440 903.212" fill="#113255"></path></g><defs><mask id="SvgjsMask1000"><rect width="1440" height="560" fill="#ffffff"></rect></mask></defs></svg>